<?xml version="1.0" standalone="no"?><svg xmlns="http://www.w3.org/2000/svg" viewBox="0 0 1440 320"><path fill="#a2d9ff" fill-opacity="1" d="M0,192L24,202.7C48,213,96,235,144,250.7C192,267,240,277,288,277.3C336,277,384,267,432,234.7C480,203,528,149,576,122.7C624,96,672,96,720,106.7C768,117,816,139,864,165.3C912,192,960,224,1008,240C1056,256,1104,256,1152,245.3C1200,235,1248,213,1296,192C1344,171,1392,149,1416,138.7L1440,128L1440,320L1416,320C1392,320,1344,320,1296,320C1248,320,1200,320,1152,320C1104,320,1056,320,1008,320C960,320,912,320,864,320C816,320,768,320,720,320C672,320,624,320,576,320C528,320,480,320,432,320C384,320,336,320,288,320C240,320,192,320,144,320C96,320,48,320,24,320L0,320Z"></path></svg>